<svg width="20" height="20" viewBox="0 0 20 20" fill="none" xmlns="http://www.w3.org/2000/svg">
<g id="icon/color/ic_notification_chat">
<g id="chat">
<path id="Path" d="M13.2955 6.05988C16.9474 6.0041 19.928 8.87836 19.9987 12.53C20.0091 13.0661 19.9555 13.5879 19.8451 14.0885C19.6582 14.936 19.5471 15.7985 19.5471 16.6664V18.3441C19.5471 18.6011 19.3387 18.8095 19.0817 18.8095H17.404C16.5361 18.8095 15.6736 18.9206 14.8261 19.1075C14.3256 19.2179 13.8037 19.2715 13.2676 19.2611C9.61604 19.1905 6.74178 16.2099 6.79749 12.5581C6.85182 8.99367 9.73112 6.11433 13.2955 6.05988Z" fill="url(#paint0_linear_10_4535)"/>
<path id="Path_2" fill-rule="evenodd" clip-rule="evenodd" d="M13.2955 6.05988C16.9474 6.0041 19.928 8.87836 19.9987 12.53C20.0091 13.0661 19.9555 13.5879 19.8451 14.0885C19.6582 14.936 19.5471 15.7985 19.5471 16.6664V18.3441C19.5471 18.6011 19.3387 18.8095 19.0817 18.8095H17.404C16.5361 18.8095 15.6736 18.9206 14.8261 19.1075C14.3256 19.2179 13.8037 19.2715 13.2676 19.2611C9.61604 19.1905 6.74178 16.2099 6.79749 12.5581C6.85182 8.99367 9.73112 6.11433 13.2955 6.05988Z" fill="url(#paint1_linear_10_4535)"/>
<path id="Path_3" fill-rule="evenodd" clip-rule="evenodd" d="M8.1679 0.0355188C3.71892 -0.0324499 0.0877093 3.46915 0.00153747 7.91782C-0.0110797 8.57091 0.0541937 9.20673 0.188725 9.81649C0.416459 10.849 0.55185 11.8997 0.55185 12.9571V15.0009C0.55185 15.3141 0.805678 15.5679 1.11884 15.5679H3.16267C4.22001 15.5679 5.27076 15.7033 6.3033 15.9311C6.91306 16.0656 7.54884 16.1309 8.20193 16.1182C12.6505 16.0321 16.1521 12.401 16.0843 7.95208C16.0181 3.60962 12.5103 0.101808 8.1679 0.0355188Z" fill="url(#paint2_linear_10_4535)"/>
<path id="Path_4" fill-rule="evenodd" clip-rule="evenodd" d="M5.16382 7.64606C4.93664 7.40465 4.61507 7.25305 4.25734 7.25305C3.56933 7.25305 3.0116 7.81079 3.0116 8.49879C3.0116 8.85649 3.16316 9.17805 3.4046 9.40528L6.09187 12.0925C6.3191 12.334 6.64066 12.4856 6.99835 12.4856C7.68636 12.4856 8.2441 11.9278 8.2441 11.2398C8.2441 10.8821 8.0925 10.5606 7.85109 10.3333L5.16382 7.64606Z" fill="#0C53B7"/>
<path id="Path_5" fill-rule="evenodd" clip-rule="evenodd" d="M8.68683 7.64606C8.45965 7.40465 8.13808 7.25305 7.78035 7.25305C7.09234 7.25305 6.53461 7.81079 6.53461 8.49879C6.53461 8.85649 6.68617 9.17805 6.92761 9.40528L9.61488 12.0925C9.84211 12.334 10.1637 12.4856 10.5214 12.4856C11.2094 12.4856 11.7671 11.9278 11.7671 11.2398C11.7671 10.8821 11.6155 10.5606 11.3741 10.3333L8.68683 7.64606Z" fill="#0C53B7"/>
<path id="Path_6" fill-rule="evenodd" clip-rule="evenodd" d="M12.2098 7.64606C11.9827 7.40465 11.6611 7.25305 11.3034 7.25305C10.6154 7.25305 10.0576 7.81079 10.0576 8.49879C10.0576 8.85649 10.2092 9.17805 10.4506 9.40528L13.1379 12.0925C13.3651 12.334 13.6867 12.4856 14.0444 12.4856C14.7324 12.4856 15.2901 11.9278 15.2901 11.2398C15.2901 10.8821 15.1385 10.5606 14.8971 10.3333L12.2098 7.64606Z" fill="#0C53B7"/>
<ellipse id="Oval" cx="4.25728" cy="8.49867" rx="1.24574" ry="1.24574" fill="white"/>
<ellipse id="Oval_2" cx="7.78041" cy="8.49867" rx="1.24574" ry="1.24574" fill="white"/>
<circle id="Oval_3" cx="11.3035" cy="8.49867" r="1.24574" fill="white"/>
</g>
</g>
<defs>
<linearGradient id="paint0_linear_10_4535" x1="7.21955" y1="16.1747" x2="16.9119" y2="25.867" gradientUnits="userSpaceOnUse">
<stop stop-color="#A7F3CE"/>
<stop offset="1" stop-color="#61DB99"/>
</linearGradient>
<linearGradient id="paint1_linear_10_4535" x1="0.195033" y1="12.6607" x2="13.3984" y2="25.8641" gradientUnits="userSpaceOnUse">
<stop stop-color="#5BE584"/>
<stop offset="1" stop-color="#00AB55"/>
</linearGradient>
<linearGradient id="paint2_linear_10_4535" x1="-8.04264" y1="8.07715" x2="8.04257" y2="24.1624" gradientUnits="userSpaceOnUse">
<stop stop-color="#74CAFF"/>
<stop offset="1" stop-color="#0C53B7"/>
</linearGradient>
</defs>
</svg>
