<svg width="84" height="60" viewBox="0 0 84 60" fill="none" xmlns="http://www.w3.org/2000/svg">
<path d="M41.9963 59.296C31.509 59.296 21.0217 59.296 10.5344 59.296C8.36299 59.296 6.28186 58.971 4.39414 57.7486C-0.160108 54.8345 -0.915712 46.737 4.84028 43.1962C15.6173 36.5686 26.2576 29.714 36.9882 23.0064C38.0198 22.3617 38.5923 21.717 38.4014 20.4791C38.3459 19.8365 38.3459 19.1902 38.4014 18.5476C38.4427 16.6263 39.1544 15.0481 40.7765 13.9391C41.6637 13.3357 42.5508 12.7348 43.4302 12.1211C44.9981 11.0276 45.5319 9.83878 45.0471 8.56741C44.6397 7.50234 42.7958 6.63069 41.3155 6.80605C38.7083 7.11035 37.7748 8.20636 37.6226 11.1488C37.5349 12.8096 37.1765 13.297 35.5441 13.3718C34.3098 13.4061 33.0756 13.3032 31.864 13.0649C31.6393 12.9813 31.4388 12.8433 31.2804 12.6633C31.122 12.4833 31.0107 12.2669 30.9563 12.0334C30.5488 6.17423 33.6692 1.65351 38.6129 0.387296C45.189 -1.29411 51.275 2.69278 52.1905 8.60093C52.7321 12.085 51.3498 14.7902 48.5801 16.8532C47.9303 17.3406 47.234 17.7687 46.5532 18.2149C45.2973 19.0375 45.0626 20.278 45.2766 21.6138C45.3411 22.011 45.8517 22.4184 46.2514 22.6686C57.105 29.4974 67.9671 36.3141 78.8378 43.1188C82.3579 45.3315 83.8046 48.6092 83.0594 52.5394C82.4327 55.8506 79.5882 58.6023 76.2667 59.051C75.2034 59.1953 74.1316 59.2677 73.0586 59.2676C62.714 59.2985 52.3599 59.308 41.9963 59.296ZM42.0453 52.0907C52.5327 52.0907 63.014 52.0907 73.4893 52.0907C74.4666 52.0907 75.444 52.0906 75.7896 50.9199C76.1352 49.7491 75.2377 49.339 74.4692 48.8568C63.9939 42.3099 53.5229 35.7554 43.0562 29.193C42.311 28.7237 41.7797 28.7082 41.0215 29.193C30.756 35.6505 20.4784 42.0873 10.1888 48.5035C9.75299 48.7743 9.23722 49.0012 8.93549 49.3854C8.63377 49.7697 8.27273 50.417 8.39136 50.8244C8.53577 51.3015 9.10312 51.7425 9.5931 51.9952C9.97477 52.1887 10.5163 52.0855 10.9883 52.0855C21.3398 52.0924 31.6921 52.0941 42.0453 52.0907Z" fill="#2F3336"/>
</svg>
