<svg width="390" height="390" viewBox="0 0 390 390" fill="none" xmlns="http://www.w3.org/2000/svg">
<rect width="390" height="390" rx="195" fill="#D84D44"/>
<path fill-rule="evenodd" clip-rule="evenodd" d="M86.0017 86.009C92.3477 79.663 102.637 79.663 108.983 86.009L194.992 172.019L281.002 86.009C287.348 79.663 297.637 79.663 303.983 86.009C310.329 92.3551 310.329 102.644 303.983 108.99L217.973 195L303.983 281.009C310.329 287.355 310.329 297.644 303.983 303.99C297.637 310.336 287.348 310.336 281.002 303.99L194.992 217.98L108.983 303.99C102.637 310.336 92.3477 310.336 86.0017 303.99C79.6557 297.644 79.6557 287.355 86.0017 281.009L172.011 195L86.0017 108.99C79.6557 102.644 79.6557 92.355 86.0017 86.009Z" fill="white"/>
</svg>
