<svg width="20" height="20" viewBox="0 0 20 20" fill="none" xmlns="http://www.w3.org/2000/svg">
<g clip-path="url(#clip0_1984_649)">
<path d="M19.9994 10.0281C19.9994 12.7174 19.9994 15.4068 19.9994 18.0961C19.9994 19.2796 19.2739 20.0017 18.0864 20.0017H1.89824C0.732364 19.9994 0 19.2699 0 18.1074C0 12.7019 0 7.29638 0 1.89086C0 0.728388 0.731796 0 1.89881 0L18.1154 0C19.262 0 19.9989 0.734638 19.9994 1.87495C19.9994 4.59343 19.9994 7.31116 19.9994 10.0281ZM14.228 1.1869C14.3206 2.06471 14.3297 2.89764 14.0706 3.70387C13.6513 5.01065 12.8627 5.97199 11.461 6.27425C10.8537 6.40493 10.2293 6.46061 9.61052 6.53675C8.82702 6.63333 8.0583 6.75947 7.41229 7.27082C6.568 7.94012 6.28221 8.86168 6.1896 9.88438C6.0879 11.0008 5.85211 12.0809 5.30382 13.0814C4.40271 14.7263 3.16753 15.9791 1.3511 16.5859C1.27781 16.6103 1.19713 16.7399 1.19372 16.8234C1.17838 17.258 1.18519 17.6938 1.1869 18.1302C1.1869 18.6159 1.38746 18.812 1.87722 18.812C3.17434 18.812 4.4709 18.8034 5.76802 18.8199C6.04187 18.8233 6.17937 18.7358 6.31573 18.5006C7.139 17.0802 8.05886 15.728 9.30939 14.6371C10.3616 13.7195 11.5411 13.128 12.9922 13.232C14.2911 13.3252 15.2416 14.0127 15.6473 15.2285C15.8818 15.9508 15.9615 16.7143 15.8814 17.4694C15.8399 17.908 15.791 18.3455 15.7427 18.8114C16.5444 18.8114 17.3285 18.8114 18.112 18.8114C18.6188 18.8114 18.812 18.6171 18.8125 18.1091C18.8125 16.4245 18.8086 14.7394 18.8182 13.0525C18.8182 12.8349 18.75 12.7428 18.5461 12.6724C17.5046 12.3144 16.5109 11.8559 15.6484 11.1571C14.5723 10.2866 13.9746 9.19633 14.1507 7.77023C14.2468 6.99185 14.6371 6.42993 15.3848 6.14869C16.0211 5.90892 16.683 5.90892 17.3438 5.99301C17.8273 6.05494 18.3057 6.15437 18.7978 6.23903C18.8034 6.17369 18.8125 6.11858 18.8125 6.0629C18.8125 4.64286 18.8125 3.22245 18.8125 1.80165C18.8125 1.39485 18.5909 1.18463 18.1722 1.18349C17.2728 1.18349 16.3734 1.18349 15.4746 1.18349L14.228 1.1869ZM1.18633 15.3797C1.33349 15.3229 1.43064 15.2876 1.52325 15.2439C3.13173 14.4882 4.12375 13.1814 4.65896 11.5457C4.91804 10.7559 4.97372 9.89801 5.10951 9.07076C5.40496 7.26513 6.61515 5.93449 8.39579 5.55496C9.24349 5.37428 10.1145 5.30212 10.973 5.16974C11.5201 5.08565 12.0025 4.87202 12.3673 4.43112C13.1627 3.47092 13.1712 2.35902 13.032 1.18747L1.96188 1.18747C1.35451 1.18747 1.1869 1.35394 1.1869 1.95733C1.1869 6.32236 1.1869 10.6876 1.1869 15.053L1.18633 15.3797ZM14.5075 18.7972C14.7195 17.9035 14.7797 16.8336 14.6621 16.0825C14.5058 15.0831 13.8837 14.5081 12.8786 14.42C11.8991 14.3343 11.0895 14.7308 10.3497 15.3104C9.29121 16.1393 8.51396 17.2103 7.7958 18.329C7.70149 18.475 7.61854 18.6279 7.51911 18.7972H14.5075ZM18.8114 11.5247C18.8114 10.1906 18.8114 8.89804 18.8069 7.60433C18.8026 7.57413 18.791 7.54544 18.7731 7.52078C18.7551 7.49611 18.7314 7.47622 18.704 7.46286C17.9557 7.2657 17.2035 7.04866 16.4217 7.1123C15.5427 7.18445 15.1683 7.66455 15.3331 8.53271C15.4024 8.91119 15.5532 9.27005 15.7751 9.58439C16.5245 10.6059 17.6467 11.0679 18.8114 11.5258V11.5247Z" fill="#2F3336"/>
</g>
<defs>
<clipPath id="clip0_1984_649">
<rect width="20" height="20" fill="white"/>
</clipPath>
</defs>
</svg>
