<svg width="60" height="60" viewBox="0 0 60 60" fill="none" xmlns="http://www.w3.org/2000/svg">
<path d="M51.2129 8.7871C45.587 3.16071 37.9558 0 30 0C22.0442 0 14.4125 3.16071 8.7871 8.7871C3.16071 14.413 0 22.0442 0 30C0 37.9558 3.16071 45.5875 8.7871 51.2129C14.413 56.8393 22.0442 60 30 60C37.9558 60 45.5875 56.8393 51.2129 51.2129C56.8393 45.587 60 37.9558 60 30C60 22.0442 56.8393 14.4125 51.2129 8.7871ZM49.2239 49.2242C44.1263 54.3171 37.2147 57.1768 30.0096 57.1746C22.8037 57.1725 15.8937 54.3085 10.7997 49.2125C5.70509 44.1163 2.84323 37.2055 2.84323 29.9993C2.84323 22.7931 5.70509 15.8835 10.7997 10.7861C15.8939 5.69021 22.8034 2.82626 30.0096 2.82405C37.215 2.8219 44.1265 5.68161 49.2239 10.7745C54.3155 15.8768 57.1747 22.7903 57.1747 29.9987C57.1747 37.2071 54.3154 44.1211 49.2239 49.2229V49.2242ZM46.9575 19.1626C47.2215 19.4266 47.3701 19.7844 47.3701 20.1573C47.3701 20.5307 47.2215 20.8881 46.9575 21.152L28.5149 39.5914C27.9654 40.14 27.0753 40.14 26.5259 39.5914L16.7489 29.8135C16.1994 29.2644 16.1994 28.3735 16.7489 27.8244C17.2979 27.275 18.1884 27.275 18.7379 27.8244L27.5202 36.6081L44.9685 19.1631C45.2321 18.8996 45.5899 18.751 45.9628 18.751C46.3357 18.751 46.6936 18.8996 46.9571 19.1631L46.9575 19.1626Z" fill="#219653"/>
</svg>
