<svg width="60" height="60" viewBox="0 0 60 60" fill="none" xmlns="http://www.w3.org/2000/svg">
<path d="M29.9998 0C13.5293 0 0.0390625 13.4902 0.0390625 30.0392C0.0390625 46.5882 13.4511 60 29.9998 60C46.5486 60 59.9606 46.588 59.9606 30.0392C60.0389 13.4902 46.5486 0 29.9998 0ZM29.9998 57.6471C14.7842 57.6471 2.392 45.2549 2.392 30.0392C2.392 14.8235 14.7842 2.43137 29.9998 2.43137C45.2155 2.43137 57.6077 14.8235 57.6077 30.0392C57.6859 45.2549 45.2937 57.6471 29.9998 57.6471ZM43.9606 18.2745L31.7255 30.0392L43.9606 41.8039C44.4311 42.2744 44.4311 42.9802 43.9606 43.4513C43.7254 43.6865 43.4114 43.8435 43.0979 43.8435C42.7844 43.8435 42.5486 43.7653 42.3133 43.53L29.9999 31.6083L17.6859 43.4513C17.4506 43.6866 17.1366 43.7648 16.9013 43.7648C16.5878 43.7648 16.2738 43.6078 16.0386 43.3726C15.5681 42.902 15.5681 42.1963 16.0386 41.7252L28.2737 29.9605L16.0386 18.1958C15.5681 17.7253 15.5681 17.0196 16.0386 16.5485C16.5091 16.078 17.2148 16.078 17.6859 16.5485L29.9999 28.3915L42.3133 16.549C42.7839 16.0785 43.4896 16.0785 43.9607 16.549C44.4312 17.0983 44.4312 17.8041 43.9607 18.2745H43.9606Z" fill="black"/>
</svg>
