<svg width="19" height="18" viewBox="0 0 19 18" fill="none" xmlns="http://www.w3.org/2000/svg">
<path d="M16.6134 12.9435V9.64226C16.6134 9.30158 16.478 8.97486 16.2368 8.73397C15.9957 8.49307 15.6687 8.35774 15.3277 8.35774H10.1848V5.05651C10.7908 4.90019 11.319 4.52843 11.6702 4.01091C12.0215 3.49339 12.1718 2.86564 12.0929 2.24534C12.0141 1.62503 11.7115 1.05475 11.2419 0.641402C10.7722 0.228049 10.1679 0 9.54199 0C8.91612 0 8.31174 0.228049 7.84213 0.641402C7.37252 1.05475 7.06992 1.62503 6.99106 2.24534C6.9122 2.86564 7.06248 3.49339 7.41375 4.01091C7.76501 4.52843 8.29314 4.90019 8.89914 5.05651V8.35774H3.75628C3.41529 8.35774 3.08826 8.49307 2.84715 8.73397C2.60603 8.97486 2.47057 9.30158 2.47057 9.64226V12.9435C1.86457 13.0998 1.33645 13.4716 0.985183 13.9891C0.633918 14.5066 0.483631 15.1344 0.562493 15.7547C0.641356 16.375 0.943952 16.9452 1.41356 17.3586C1.88317 17.7719 2.48756 18 3.11343 18C3.73929 18 4.34368 17.7719 4.81329 17.3586C5.2829 16.9452 5.58549 16.375 5.66436 15.7547C5.74322 15.1344 5.59293 14.5066 5.24167 13.9891C4.8904 13.4716 4.36228 13.0998 3.75628 12.9435V9.64226H15.3277V12.9435C14.7217 13.0998 14.1936 13.4716 13.8423 13.9891C13.4911 14.5066 13.3408 15.1344 13.4196 15.7547C13.4985 16.375 13.8011 16.9452 14.2707 17.3586C14.7403 17.7719 15.3447 18 15.9706 18C16.5964 18 17.2008 17.7719 17.6704 17.3586C18.14 16.9452 18.4426 16.375 18.5215 15.7547C18.6004 15.1344 18.4501 14.5066 18.0988 13.9891C17.7475 13.4716 17.2194 13.0998 16.6134 12.9435ZM4.39914 15.4226C4.39914 15.6767 4.32373 15.925 4.18246 16.1363C4.04118 16.3475 3.84038 16.5121 3.60545 16.6094C3.37051 16.7066 3.112 16.732 2.8626 16.6825C2.61319 16.6329 2.3841 16.5106 2.20429 16.3309C2.02448 16.1513 1.90203 15.9224 1.85242 15.6732C1.80281 15.424 1.82827 15.1658 1.92558 14.931C2.02289 14.6963 2.18769 14.4957 2.39912 14.3546C2.61056 14.2134 2.85914 14.1381 3.11343 14.1381C3.45442 14.1381 3.78144 14.2734 4.02256 14.5143C4.26368 14.7552 4.39914 15.0819 4.39914 15.4226ZM8.25628 2.57738C8.25628 2.32333 8.33168 2.07498 8.47296 1.86374C8.61424 1.6525 8.81504 1.48786 9.04997 1.39064C9.2849 1.29342 9.54342 1.26798 9.79282 1.31754C10.0422 1.36711 10.2713 1.48945 10.4511 1.66909C10.6309 1.84873 10.7534 2.07761 10.803 2.32679C10.8526 2.57596 10.8271 2.83423 10.7298 3.06895C10.6325 3.30367 10.4677 3.50428 10.2563 3.64543C10.0449 3.78657 9.79628 3.86191 9.54199 3.86191C9.201 3.86191 8.87397 3.72657 8.63286 3.48568C8.39174 3.24478 8.25628 2.91806 8.25628 2.57738ZM15.9706 16.7071C15.7163 16.7071 15.4677 16.6318 15.2563 16.4907C15.0448 16.3495 14.88 16.1489 14.7827 15.9142C14.6854 15.6795 14.6599 15.4212 14.7096 15.172C14.7592 14.9228 14.8816 14.694 15.0614 14.5143C15.2412 14.3347 15.4703 14.2123 15.7197 14.1628C15.9691 14.1132 16.2276 14.1386 16.4626 14.2359C16.6975 14.3331 16.8983 14.4977 17.0396 14.709C17.1809 14.9202 17.2563 15.1686 17.2563 15.4226C17.2563 15.7633 17.1208 16.09 16.8797 16.3309C16.6386 16.5718 16.3116 16.7071 15.9706 16.7071Z" fill="#536471"/>
</svg>
