<svg width="20" height="20" viewBox="0 0 20 20" fill="none" xmlns="http://www.w3.org/2000/svg">
<path d="M5.12804 16.5527C5.66997 15.9556 6.20252 15.3647 6.78071 14.7234C6.23753 14.5059 5.71372 14.274 5.17492 14.0852C3.67196 13.5598 2.09261 13.2844 0.500052 13.2699C0.181894 13.2662 0 13.1153 0 12.8766C0 12.6379 0.203147 12.4877 0.535057 12.4921C2.82914 12.5137 5.08901 13.0492 7.14762 14.059C7.34514 14.1556 7.4714 14.1412 7.64142 13.9998C8.15148 13.5753 8.68091 13.1739 9.27159 12.7096C8.43088 12.325 7.63892 11.928 6.82071 11.5933C4.80675 10.77 2.69528 10.4191 0.52568 10.3592C0.4738 10.3592 0.42192 10.3524 0.370039 10.3499C0.127514 10.3374 0.00312536 10.1916 0.00687576 9.96845C0.0106261 9.74532 0.14314 9.59448 0.381915 9.5976C0.798208 9.5976 1.2145 9.61505 1.63205 9.62876C1.78456 9.63313 1.93645 9.64746 2.1196 9.6593C2.1196 9.2467 2.13647 8.86339 2.1096 8.48319C2.10147 8.37287 1.98458 8.2557 1.8927 8.16782C1.03136 7.34323 0.506929 6.35285 0.463799 5.15368C0.409419 3.62916 1.08886 2.43933 2.24586 1.49134C2.43775 1.33365 2.62777 1.38912 2.81217 1.53434C4.93739 3.20782 5.13116 6.1559 3.22159 8.03693C2.95906 8.29559 2.82592 8.54489 2.87593 8.89954C2.8803 8.96179 2.8803 9.02427 2.87593 9.08652C2.87593 9.83444 2.87593 9.83444 3.69476 9.84317C3.69476 9.42994 3.66788 9.01484 3.70601 8.60535C3.72477 8.38386 3.81214 8.17366 3.95604 8.00389C4.58402 7.33907 5.22992 6.6917 5.89374 6.06178C6.04938 5.9162 6.25036 5.82821 6.46317 5.81247C7.83832 5.7917 9.21346 5.7917 10.5886 5.81247C10.7916 5.82426 10.9843 5.90549 11.1343 6.04246C11.8035 6.68318 12.4567 7.33907 13.0939 8.01013C13.226 8.16235 13.3041 8.35386 13.3158 8.55487C13.3433 9.14573 13.3251 9.73908 13.3264 10.3306C13.3264 10.4309 13.3351 10.5313 13.3401 10.6422C14.0402 10.4471 14.7153 10.2589 15.3929 10.0682C15.4322 10.0556 15.4662 10.0304 15.4897 9.99649C15.6091 9.81387 15.4741 8.99116 15.3022 8.83472C14.3377 7.9478 13.6639 6.88824 13.4339 5.57937C13.167 4.06358 13.4858 2.66869 14.4009 1.43462C14.744 0.971528 15.1803 0.57575 15.5848 0.159405C15.7779 -0.0406646 15.9954 -0.0562464 16.2204 0.134475C17.2037 0.963425 17.9506 1.95318 18.2963 3.21094C18.7338 4.80776 18.4475 6.29364 17.5393 7.6611C17.2999 8.02197 17.0355 8.39593 16.6986 8.65833C16.2611 8.99552 16.2836 9.39379 16.3317 9.85252C16.9655 9.78146 17.5818 9.69857 18.2013 9.64746C18.6576 9.60944 19.1164 9.61443 19.5764 9.5976C19.8302 9.58825 19.9721 9.71478 19.9977 9.9566C20.0221 10.1829 19.8496 10.3262 19.5814 10.3542C18.425 10.4752 17.2537 10.5238 16.1148 10.7419C13.1082 11.3135 10.4598 12.646 8.1296 14.6168C6.48255 16.0054 5.17429 17.6708 4.09855 19.5319C3.86603 19.9327 3.66101 20.0305 3.42536 19.8816C3.18971 19.7326 3.18721 19.5076 3.42911 19.1193C3.81852 18.496 4.21294 17.8728 4.64173 17.1946C4.07043 17.0264 3.51662 16.8101 2.94843 16.7091C2.11147 16.5608 1.26076 16.5053 0.416919 16.3832C0.273154 16.3626 0.0825087 16.2304 0.0362539 16.1045C-0.00375028 15.9973 0.109387 15.8079 0.200022 15.6895C0.245026 15.6302 0.391291 15.6352 0.492552 15.634C1.60666 15.6263 2.7156 15.7856 3.78227 16.1064C4.23794 16.2373 4.68486 16.405 5.12804 16.5527ZM15.9154 0.926029C13.3858 3.0894 13.8114 6.34537 15.5004 7.84995C15.5047 7.80382 15.5116 7.76331 15.5116 7.72218C15.5116 6.8496 15.5072 5.97702 15.5154 5.10444C15.5154 4.75852 15.6729 4.59398 15.9373 4.60582C16.1842 4.61829 16.3067 4.78221 16.308 5.1169C16.308 5.62549 16.308 6.13408 16.308 6.64329V7.9104C18.1906 6.03124 18.2338 2.91863 15.9154 0.926029ZM8.87343 8.79856C8.87343 9.49289 8.91468 10.1698 8.86092 10.8367C8.81404 11.4207 8.93843 11.8339 9.54225 12.0209C9.64851 12.0533 9.73414 12.1524 9.8404 12.1848C9.93416 12.2135 10.0604 12.2284 10.1417 12.1885C10.8861 11.8221 11.6243 11.4437 12.3613 11.0629C12.435 11.0249 12.5419 10.9476 12.5432 10.8871C12.5563 10.1953 12.5513 9.50411 12.5513 8.80106L8.87343 8.79856ZM2.87593 7.22231C4.14543 5.848 4.02792 3.61607 2.50089 2.34023C0.875717 3.67403 0.920721 6.04184 2.1196 7.18367V5.02341C2.1196 4.91995 2.1196 4.81586 2.1196 4.71178C2.1196 4.44938 2.23961 4.29294 2.51026 4.29917C2.76529 4.30478 2.87593 4.4606 2.87593 4.70617C2.8753 5.52577 2.87593 6.34412 2.87593 7.22231ZM7.31889 6.59904L7.27326 6.69316C7.3914 6.7935 7.51578 6.88886 7.62767 6.99669C7.97146 7.32702 8.25711 7.79074 8.66653 7.96027C9.07595 8.1298 9.60413 8.00888 10.0848 8.01137C10.6942 8.01137 11.3037 8.01137 11.9137 8.01137L11.9875 7.90542C11.7644 7.71158 11.4981 7.54953 11.3256 7.31767C10.873 6.70936 10.3011 6.51739 9.55287 6.58408C8.80467 6.65077 8.06397 6.60153 7.31889 6.60153V6.59904ZM5.0274 10.1342C5.03365 10.0551 5.04428 9.9753 5.04615 9.89552C5.05678 9.41872 5.14179 9.33022 5.60871 9.3271C6.07563 9.32398 6.54631 9.32274 7.01198 9.3271C7.41952 9.33209 7.54391 9.4611 7.55016 9.87558C7.55454 10.1249 7.55016 10.3742 7.55016 10.6235C7.55016 11.086 7.55016 11.086 8.04396 11.2025V8.80978H4.49672V9.60695C4.49797 10.1031 4.49797 10.1031 5.0274 10.1367V10.1342ZM5.08366 7.99143H7.44703L6.26503 6.83402L5.08366 7.99143ZM5.7531 10.1174C5.94062 10.6341 6.4213 10.5094 6.72883 10.7114V10.1174H5.7531Z" fill="#2F3336"/>
<path d="M19.1022 15.629C19.2578 15.629 19.4147 15.6327 19.5703 15.629C19.8204 15.6215 19.966 15.7462 19.9935 15.9874C20.0191 16.2118 19.8435 16.3613 19.5791 16.3919C18.7446 16.4872 17.8983 16.5296 17.0788 16.7035C15.0005 17.1429 13.1941 18.1277 11.6451 19.5793C11.5614 19.6572 11.4808 19.7382 11.3951 19.8124C11.2145 19.9651 11.0201 20.0069 10.8382 19.8261C10.6563 19.6454 10.6757 19.426 10.8563 19.2508C11.1313 18.9828 11.4107 18.7173 11.7089 18.4755C13.6247 16.9229 15.8006 15.9718 18.264 15.7013C18.5421 15.6708 18.8209 15.6427 19.0997 15.6134L19.1022 15.629Z" fill="#212B36"/>
<path d="M7.06523 20C6.93271 19.9046 6.76332 19.8467 6.73957 19.7507C6.70081 19.5992 6.70144 19.3811 6.78645 19.2652C7.21524 18.6805 7.65216 18.0984 8.13159 17.5555C8.92487 16.6622 9.83352 15.8777 10.8337 15.2226C10.9101 15.1804 10.9943 15.1539 11.0811 15.1447C11.168 15.1355 11.2558 15.1438 11.3394 15.169C11.4288 15.1989 11.4932 15.4214 11.4926 15.5573C11.4926 15.6533 11.3819 15.7755 11.2888 15.8403C9.7701 16.8838 8.45652 18.1966 7.41339 19.7133C7.33838 19.8224 7.20211 19.8897 7.06523 20Z" fill="#212B36"/>
<path d="M18.9423 12.4771C19.1299 12.4771 19.3174 12.474 19.5049 12.4771C19.8174 12.4833 20.005 12.6398 19.9975 12.8779C19.99 13.1159 19.8099 13.2443 19.4899 13.2686C18.7767 13.3229 18.056 13.3409 17.3534 13.4612C16.5502 13.5984 15.7601 13.819 14.9713 14.0272C14.545 14.1394 14.3325 14.1182 14.2419 13.8751C14.1418 13.6065 14.2812 13.422 14.7069 13.2817C16.0759 12.8244 17.5006 12.5538 18.9423 12.4771Z" fill="#212B36"/>
<path d="M12.7901 14.1181C13.0095 14.1406 13.1651 14.2397 13.1826 14.4753C13.1878 14.5791 13.1518 14.6808 13.0825 14.7584C13.0131 14.8361 12.916 14.8835 12.812 14.8904C12.7601 14.8919 12.7086 14.8827 12.6605 14.8634C12.6124 14.844 12.5689 14.815 12.5327 14.778C12.4964 14.7411 12.4683 14.697 12.45 14.6487C12.4316 14.6003 12.4236 14.5487 12.4263 14.4971C12.4237 14.448 12.4313 14.3989 12.4484 14.3529C12.4656 14.3068 12.492 14.2648 12.5261 14.2293C12.5602 14.1938 12.6012 14.1656 12.6466 14.1465C12.692 14.1274 12.7408 14.1177 12.7901 14.1181Z" fill="#212B36"/>
<path d="M15.9219 3.88404C15.6863 3.87718 15.5587 3.74567 15.5356 3.52254C15.5331 3.47097 15.541 3.41942 15.5588 3.37093C15.5766 3.32245 15.6039 3.27801 15.6392 3.24024C15.6745 3.20248 15.7171 3.17215 15.7644 3.15106C15.8116 3.12996 15.8626 3.11852 15.9144 3.11742C16.0181 3.12222 16.1161 3.16583 16.189 3.23953C16.2619 3.31323 16.3042 3.41162 16.3076 3.51506C16.3002 3.61316 16.2568 3.70509 16.1856 3.7732C16.1144 3.8413 16.0205 3.88078 15.9219 3.88404Z" fill="#212B36"/>
</svg>
