<svg width="487" height="487" viewBox="0 0 487 487" fill="none" xmlns="http://www.w3.org/2000/svg">
<path d="M243.82 0.109638H471.214C481.756 0.109638 486.676 4.91186 486.676 15.3715C486.676 167.215 486.676 319.052 486.676 470.881C486.676 481.22 481.701 486.231 471.334 486.669C470.063 486.669 468.781 486.669 467.499 486.669C318.095 486.669 168.698 486.669 19.3084 486.669C16.5762 486.714 13.8451 486.527 11.1445 486.11C4.56958 485.014 0.558868 480.354 0.0438328 473.776C-0.054791 472.504 0.0438328 471.21 0.0438328 469.938C0.0438328 318.833 0.0839969 167.723 0.164357 16.6104C0.179108 12.6356 1.14478 8.72198 2.98062 5.19692C5.31472 0.811332 9.92813 0 14.8374 0C91.1503 0.116949 167.478 0.153494 243.82 0.109638ZM256.97 26.4232V230.068H460.08V26.4122L256.97 26.4232ZM26.5737 460.202H229.75V256.787H26.5737V460.202ZM229.815 230.244V26.6205H26.7599V230.244H229.815ZM460.004 460.487V256.897H256.948V460.52L460.004 460.487Z" fill="#536471"/>
<path d="M358.494 115.253C374.931 115.253 391.368 115.253 407.806 115.253C416.824 115.253 422.249 120.176 422.216 128.103C422.216 135.844 417 140.723 408.2 140.734C374.975 140.821 341.735 140.821 308.481 140.734C299.78 140.734 294.575 135.701 294.608 127.961C294.64 120.22 300.087 115.286 308.623 115.253C325.258 115.209 341.881 115.253 358.494 115.253Z" fill="#536471"/>
<path d="M128.918 340.421C137.586 331.452 145.991 322.615 154.549 313.932C159.59 308.823 165.65 307.934 170.986 311.125C178.515 315.675 179.578 325.027 172.992 331.737C164.411 340.454 155.557 348.907 145.826 358.445C151.305 363.588 156.269 368.258 161.168 373.017C164.981 376.711 168.685 380.494 172.389 384.277C178.635 390.658 178.964 398.146 173.364 403.661C168.071 408.858 160.335 408.485 154.385 402.565C145.87 394.056 137.498 385.417 127.844 375.593C119.987 383.926 112.634 391.732 105.27 399.517C103.889 400.975 102.497 402.433 100.985 403.76C95.5061 408.551 88.0655 408.485 83.1672 403.661C77.984 398.563 77.7758 391.052 83.0905 385.505C90.7613 377.468 98.7936 369.684 106.651 361.779C107.67 360.759 108.612 359.663 110.387 357.733C101.621 349.269 93.0296 340.903 84.3726 332.581C80.7455 329.106 78.4552 325.093 79.4962 319.907C79.8668 317.628 80.865 315.497 82.3787 313.754C83.8924 312.011 85.8617 310.725 88.0655 310.04C93.2269 308.318 97.7964 309.722 101.621 313.515C109.149 320.971 116.623 328.481 124.14 335.947C125.389 337.186 126.726 338.37 128.918 340.421Z" fill="#536471"/>
<path d="M141.21 140.788C141.21 154.186 141.32 166.225 141.21 178.263C141.134 184.173 138.734 188.876 132.827 191.135C127.644 193.108 122.625 192.231 119.392 188.065C117.078 184.859 115.738 181.051 115.535 177.101C115.009 167.233 115.349 157.366 115.349 147.498V140.723H94.7914C89.3122 140.723 83.8331 140.799 78.354 140.723C69.5875 140.558 64.4371 135.723 64.4591 127.971C64.481 120.22 69.9382 115.286 78.4308 115.231C90.4848 115.166 102.462 115.231 115.283 115.231V100.868C115.283 93.1937 115.13 85.5189 115.349 77.8441C115.579 69.6979 120.828 64.194 127.984 64.0076C135.139 63.8212 140.958 69.4896 141.134 77.866C141.364 88.0845 141.199 98.3139 141.21 108.565V115.264H158.919C166.042 115.264 173.164 115.045 180.265 115.374C187.366 115.703 192.023 121.163 192.034 128.037C192.045 134.912 187.388 140.383 180.298 140.602C169.34 140.942 158.382 140.766 147.424 140.799C145.539 140.799 143.61 140.788 141.21 140.788Z" fill="#536471"/>
<path d="M358.139 334.829C341.153 334.829 324.168 334.939 307.194 334.829C300.52 334.774 295.732 330.52 294.8 324.643C293.77 318.065 296.926 312.309 302.942 310.226C304.674 309.679 306.485 309.419 308.301 309.458C341.709 309.414 375.12 309.414 408.535 309.458C416.743 309.458 422.08 314.491 422.189 321.935C422.31 329.753 417.148 334.84 408.524 334.906C391.736 335.026 374.937 334.906 358.117 334.906L358.139 334.829Z" fill="#536471"/>
<path d="M358.004 409.428C341.391 409.428 324.768 409.527 308.155 409.428C299.991 409.362 294.928 404.681 294.622 397.444C294.293 389.419 299.706 383.981 308.385 383.959C337.775 383.907 367.172 383.907 396.577 383.959C400.774 383.959 404.971 383.871 409.168 383.959C416.926 384.178 422.109 389.265 422.186 396.567C422.263 403.869 417.31 409.264 409.496 409.362C392.336 409.56 375.164 409.417 357.993 409.417L358.004 409.428Z" fill="#536471"/>
</svg>
