<svg width="62" height="60" viewBox="0 0 62 60" fill="none" xmlns="http://www.w3.org/2000/svg">
<path d="M54.3525 7.28823V6.28823H53.3525H20.7599H19.7599V7.28823V19.9415V20.9415H20.7599H53.3525H54.3525V19.9415V7.28823ZM1.10165 14.7742L14.3593 1H53.8135C57.7526 1 60.8983 4.14514 60.8983 8.08394V51.9162C60.8983 55.8551 57.7534 59 53.8145 59H8.18549C4.24655 59 1.10165 55.8551 1.10165 51.9162V14.7742ZM30.9996 33.4915C25.2379 33.4915 20.658 38.0708 20.658 43.8331C20.658 49.4278 25.2501 53.9947 30.9996 53.9947C36.7485 53.9947 41.3412 49.428 41.3412 43.8331C41.3412 38.0714 36.7618 33.4915 30.9996 33.4915Z" stroke="#219653" stroke-width="2"/>
</svg>
