<svg width="20" height="20" viewBox="0 0 20 20" fill="none" xmlns="http://www.w3.org/2000/svg">
<path d="M10.1562 15.5906C5.9332 16.6885 2.47346 14.5289 0.953765 11.723C0.141769 10.2187 -0.163511 8.49266 0.0832273 6.80113C0.329966 5.10959 1.11557 3.54267 2.32347 2.33286C3.53137 1.12306 5.09719 0.334862 6.78858 0.0852215C8.47996 -0.164419 10.2068 0.137804 11.7128 0.947046C14.4542 2.41527 16.7153 5.84447 15.5929 10.1742C17.2081 10.4059 18.4767 11.1859 19.3206 12.5986C19.8556 13.4878 20.0845 14.5278 19.9721 15.5594C19.7447 17.8901 17.8802 19.7605 15.4605 19.984C13.5454 20.1602 10.6128 18.8905 10.1562 15.5906ZM7.95883 1.14252C7.46476 1.20497 6.95945 1.22308 6.47849 1.33424C2.5684 2.23104 0.306037 6.17921 1.49656 10.0018C2.59713 13.5341 6.48537 15.5456 9.99946 14.4022C10.1481 14.3541 10.2206 14.2891 10.2624 14.1136C10.7534 12.049 12.0413 10.7606 14.1032 10.2629C14.2906 10.2173 14.3624 10.138 14.4111 9.97999C14.7434 8.89646 14.8277 7.7942 14.6054 6.68381C13.9102 3.20153 10.8902 1.13627 7.95883 1.14252ZM18.809 15.091C18.8121 14.5991 18.7179 14.1114 18.5319 13.6559C18.3459 13.2005 18.0718 12.7863 17.7252 12.4371C17.3787 12.0878 16.9666 11.8105 16.5125 11.621C16.0585 11.4315 15.5715 11.3335 15.0795 11.3327C13.0338 11.3327 11.3536 13.0064 11.3368 15.0629C11.3193 17.1063 12.9995 18.7987 15.052 18.8037C17.1513 18.8087 18.8065 17.1731 18.809 15.091Z" fill="#2F3336"/>
<path d="M11.8664 8.11206C11.9914 9.7539 11.4579 11.0922 10.0682 11.984C8.71837 12.849 7.288 12.869 5.91385 12.0384C4.46349 11.164 3.90946 9.80261 4.0094 8.11393L11.8664 8.11206ZM10.6172 9.2749H5.27549C5.44913 10.4615 6.63341 11.4238 7.90637 11.4313C9.23181 11.4382 10.423 10.5033 10.6153 9.2749H10.6172Z" fill="#2F3336"/>
<path d="M11.7451 6.71442C11.3928 6.71442 11.0818 6.71442 10.7713 6.71442C10.7019 6.70866 10.633 6.6978 10.5652 6.68195C10.5652 6.44776 10.5721 6.22044 10.5652 5.99499C10.5656 5.86881 10.5166 5.74749 10.4287 5.65694C10.3408 5.56639 10.221 5.51379 10.0949 5.51036C9.9687 5.51218 9.84835 5.56382 9.76011 5.65403C9.67188 5.74424 9.62292 5.86569 9.62392 5.99186C9.6158 6.21919 9.62392 6.44776 9.62392 6.69694H8.45027C8.40092 5.98999 8.38406 5.3074 8.96932 4.7878C9.494 4.32192 10.0936 4.20576 10.7345 4.47555C11.3753 4.74534 11.7176 5.25244 11.7439 5.95564C11.7526 6.19358 11.7451 6.43214 11.7451 6.71442Z" fill="#2F3336"/>
<path d="M7.49365 6.70191H6.35248C6.35248 6.48833 6.35997 6.28599 6.35248 6.08365C6.33749 5.73579 6.13823 5.50785 5.86278 5.50847C5.57421 5.50847 5.37808 5.75141 5.37495 6.113C5.37495 6.30035 5.37495 6.48771 5.37495 6.69317H4.25064C3.95895 5.54906 4.57357 4.52362 5.64166 4.35937C6.50176 4.2276 7.35998 4.829 7.48865 5.6902C7.53363 6.01308 7.49365 6.34782 7.49365 6.70191Z" fill="#2F3336"/>
<path d="M16.7211 13.2405L17.5331 14.0774L14.3476 17.238L12.7642 15.6218L13.5456 14.8724L14.2732 15.7305C15.1346 14.8543 15.9185 14.0555 16.7211 13.2405Z" fill="#2F3336"/>
</svg>
