<svg width="58" height="60" viewBox="0 0 58 60" fill="none" xmlns="http://www.w3.org/2000/svg">
<path d="M9 1H49V6H9V1Z" stroke="#EB5757" stroke-width="2"/>
<path d="M11.6208 57.7338L11.231 57.7469L11.619 57.7122L7.69233 13.7333L7.61099 12.8222H6.69629H1.41357L1.41387 10.1099L56.5866 10.1094V12.8217H51.3037H50.389L50.3077 13.7327L46.381 57.7117L46.38 57.7227L46.3793 57.7338C46.3562 58.0779 46.2034 58.3998 45.9517 58.6354C45.6995 58.8702 45.3673 59.0007 45.0227 59H45.0209L12.9791 59L12.9773 59C12.6326 59.0007 12.3004 58.8702 12.0483 58.6353C11.7966 58.3998 11.6438 58.0778 11.6208 57.7338Z" stroke="#EB5757" stroke-width="2"/>
</svg>
