<svg width="175" height="114" viewBox="0 0 175 114" fill="none" xmlns="http://www.w3.org/2000/svg">
<rect width="175" height="113.48" rx="8" fill="#ECF5FD"/>
<mask id="mask0_608_11256" style="mask-type:alpha" maskUnits="userSpaceOnUse" x="59" y="28" width="57" height="57">
<rect x="59.5" y="28.7402" width="56" height="56" fill="#D9D9D9"/>
</mask>
<g mask="url(#mask0_608_11256)">
<path d="M73.5 61.3486V54.3486L69.125 56.7402L62.125 44.6069L77.525 35.7402H80.5C81.1222 37.6069 81.8611 39.2402 82.7167 40.6402C83.5722 42.0402 85.1667 42.7402 87.5 42.7402C89.8333 42.7402 91.4278 42.0402 92.2833 40.6402C93.1389 39.2402 93.8778 37.6069 94.5 35.7402H97.475L112.817 44.6652L105.875 56.7402L101.5 54.3486V65.5486L97.825 68.7569C97.5528 68.9902 97.2417 69.175 96.8917 69.3111C96.5417 69.4472 96.1917 69.5152 95.8417 69.5152C95.6083 69.5152 95.3361 69.4375 95.025 69.2819C94.7139 69.1263 94.4028 68.9319 94.0917 68.6986L87.9083 63.3902C86.6639 62.3013 85.2639 61.5041 83.7083 60.9986C82.1528 60.493 80.5778 60.2402 78.9833 60.2402C78.05 60.2402 77.1264 60.3277 76.2125 60.5027C75.2986 60.6777 74.3944 60.9597 73.5 61.3486ZM70.35 73.9486L67.3167 70.3902L72.3917 66.0736C73.2861 65.2958 74.3069 64.7027 75.4542 64.2944C76.6014 63.8861 77.7972 63.6819 79.0417 63.6819C80.2861 63.6819 81.4722 63.8861 82.6 64.2944C83.7278 64.7027 84.7389 65.2958 85.6333 66.0736L92.4 71.8486C92.8667 72.2375 93.4208 72.5388 94.0625 72.7527C94.7042 72.9666 95.3556 73.0736 96.0167 73.0736C96.7167 73.0736 97.368 72.9763 97.9708 72.7819C98.5736 72.5875 99.1083 72.2763 99.575 71.8486L104.65 67.4736L107.683 71.0902L102.608 75.4069C101.714 76.1847 100.703 76.768 99.575 77.1569C98.4472 77.5458 97.2611 77.7402 96.0167 77.7402C94.7722 77.7402 93.5764 77.5458 92.4292 77.1569C91.2819 76.768 90.2611 76.1847 89.3667 75.4069L82.6 69.6319C82.1333 69.243 81.5986 68.9416 80.9958 68.7277C80.3931 68.5138 79.7417 68.4069 79.0417 68.4069C78.3806 68.4069 77.7292 68.5138 77.0875 68.7277C76.4458 68.9416 75.8917 69.243 75.425 69.6319L70.35 73.9486Z" fill="#09304F"/>
</g>
</svg>
