<svg width="82" height="68" viewBox="0 0 82 68" fill="none" xmlns="http://www.w3.org/2000/svg">
<path d="M11.4688 34L0.21875 14.5L24.9688 0.25H29.75C30.75 3.25 31.9375 5.875 33.3125 8.125C34.6875 10.375 37.25 11.5 41 11.5C44.75 11.5 47.3125 10.375 48.6875 8.125C50.0625 5.875 51.25 3.25 52.25 0.25H57.0313L81.6875 14.5938L70.5312 34L63.5 30.1562V48.1563L57.5938 53.3125C57.4062 53.4375 57.1562 53.5938 56.8438 53.7813C56.5312 53.9688 56.25 54.125 56 54.25V17.4063L67.7188 23.875L71.4688 17.3125L57.125 8.96875C55.625 12.0312 53.4219 14.4688 50.5156 16.2812C47.6094 18.0938 44.4375 19 41 19C37.5625 19 34.3906 18.0938 31.4844 16.2812C28.5781 14.4688 26.375 12.0312 24.875 8.96875L10.4375 17.3125L14.2812 23.875L26 17.4063V39.625C24.6875 39.75 23.4062 39.9531 22.1562 40.2344C20.9062 40.5156 19.6875 40.9062 18.5 41.4062V30.1562L11.4688 34ZM13.4375 61.6562L8.5625 55.9375L16.7188 49C18.1562 47.75 19.7969 46.7969 21.6406 46.1406C23.4844 45.4844 25.4062 45.1562 27.4062 45.1562C29.4062 45.1562 31.3125 45.4844 33.125 46.1406C34.9375 46.7969 36.5625 47.75 38 49L48.875 58.2812C49.625 58.9062 50.5156 59.3906 51.5469 59.7344C52.5781 60.0781 53.625 60.25 54.6875 60.25C55.8125 60.25 56.8594 60.0938 57.8281 59.7812C58.7969 59.4688 59.6563 58.9688 60.4063 58.2812L68.5625 51.25L73.4375 57.0625L65.2812 64C63.8438 65.25 62.2188 66.1875 60.4063 66.8125C58.5938 67.4375 56.6875 67.75 54.6875 67.75C52.6875 67.75 50.7656 67.4375 48.9219 66.8125C47.0781 66.1875 45.4375 65.25 44 64L33.125 54.7188C32.375 54.0938 31.5156 53.6094 30.5469 53.2656C29.5781 52.9219 28.5312 52.75 27.4062 52.75C26.3438 52.75 25.2969 52.9219 24.2656 53.2656C23.2344 53.6094 22.3438 54.0938 21.5938 54.7188L13.4375 61.6562Z" fill="#1C1B1F"/>
</svg>
