<svg width="175" height="114" viewBox="0 0 175 114" fill="none" xmlns="http://www.w3.org/2000/svg">
<rect width="175" height="113.48" rx="8" fill="#ECF5FD"/>
<mask id="mask0_608_11248" style="mask-type:alpha" maskUnits="userSpaceOnUse" x="59" y="28" width="57" height="57">
<rect x="59.5" y="28.7402" width="56" height="56" fill="#D9D9D9"/>
</mask>
<g mask="url(#mask0_608_11248)">
<path d="M68.8307 66.0739C67.5474 66.0739 66.4488 65.617 65.5349 64.7031C64.621 63.7892 64.1641 62.6906 64.1641 61.4072V38.0739C64.1641 36.7906 64.621 35.6919 65.5349 34.7781C66.4488 33.8642 67.5474 33.4072 68.8307 33.4072H92.1641C93.4474 33.4072 94.546 33.8642 95.4599 34.7781C96.3738 35.6919 96.8307 36.7906 96.8307 38.0739V40.4072C96.8307 41.0683 96.6071 41.6225 96.1599 42.0697C95.7127 42.5169 95.1585 42.7406 94.4974 42.7406C93.8363 42.7406 93.2821 42.5169 92.8349 42.0697C92.3877 41.6225 92.1641 41.0683 92.1641 40.4072V38.0739H68.8307V61.4072H71.1641C71.8252 61.4072 72.3793 61.6308 72.8266 62.0781C73.2738 62.5253 73.4974 63.0795 73.4974 63.7406C73.4974 64.4017 73.2738 64.9558 72.8266 65.4031C72.3793 65.8503 71.8252 66.0739 71.1641 66.0739H68.8307ZM82.8307 80.0739C81.5474 80.0739 80.4488 79.617 79.5349 78.7031C78.621 77.7892 78.1641 76.6906 78.1641 75.4072V52.0739C78.1641 50.7906 78.621 49.6919 79.5349 48.7781C80.4488 47.8642 81.5474 47.4072 82.8307 47.4072H106.164C107.447 47.4072 108.546 47.8642 109.46 48.7781C110.374 49.6919 110.831 50.7906 110.831 52.0739V75.4072C110.831 76.6906 110.374 77.7892 109.46 78.7031C108.546 79.617 107.447 80.0739 106.164 80.0739H82.8307Z" fill="#09304F"/>
</g>
</svg>
