<svg width="175" height="114" viewBox="0 0 175 114" fill="none" xmlns="http://www.w3.org/2000/svg">
<rect width="175" height="113.48" rx="8" fill="#ECF5FD"/>
<mask id="mask0_608_11244" style="mask-type:alpha" maskUnits="userSpaceOnUse" x="59" y="28" width="57" height="57">
<rect x="59.5" y="28.7402" width="56" height="56" fill="#D9D9D9"/>
</mask>
<g mask="url(#mask0_608_11244)">
<path d="M64.1641 70.7399V66.0732C65.6418 66.0732 66.7405 65.6844 67.4599 64.9066C68.1793 64.1288 69.6863 63.7399 71.9807 63.7399C74.2752 63.7399 75.7821 64.1288 76.5016 64.9066C77.221 65.6844 78.2807 66.0732 79.6807 66.0732C81.1585 66.0732 82.2571 65.6844 82.9766 64.9066C83.696 64.1288 85.203 63.7399 87.4974 63.7399C89.7141 63.7399 91.221 64.1288 92.0182 64.9066C92.8155 65.6844 93.9141 66.0732 95.3141 66.0732C96.7918 66.0732 97.871 65.6844 98.5516 64.9066C99.2321 64.1288 100.72 63.7399 103.014 63.7399C105.309 63.7399 106.815 64.1288 107.535 64.9066C108.254 65.6844 109.353 66.0732 110.831 66.0732V70.7399C108.614 70.7399 107.107 70.351 106.31 69.5732C105.513 68.7955 104.414 68.4066 103.014 68.4066C101.614 68.4066 100.554 68.7955 99.8349 69.5732C99.1155 70.351 97.6085 70.7399 95.3141 70.7399C93.0974 70.7399 91.5905 70.351 90.7932 69.5732C89.996 68.7955 88.8974 68.4066 87.4974 68.4066C86.0196 68.4066 84.921 68.7955 84.2016 69.5732C83.4821 70.351 81.9752 70.7399 79.6807 70.7399C77.3863 70.7399 75.8988 70.351 75.2182 69.5732C74.5377 68.7955 73.4585 68.4066 71.9807 68.4066C70.503 68.4066 69.4043 68.7955 68.6849 69.5732C67.9655 70.351 66.4585 70.7399 64.1641 70.7399ZM64.1641 61.4066V56.7399C65.6418 56.7399 66.7405 56.351 67.4599 55.5732C68.1793 54.7955 69.6863 54.4066 71.9807 54.4066C74.1974 54.4066 75.6849 54.7955 76.4432 55.5732C77.2016 56.351 78.2807 56.7399 79.6807 56.7399C81.1585 56.7399 82.2571 56.351 82.9766 55.5732C83.696 54.7955 85.203 54.4066 87.4974 54.4066C89.7141 54.4066 91.2113 54.7955 91.9891 55.5732C92.7668 56.351 93.8363 56.7399 95.1974 56.7399C96.6752 56.7399 97.7738 56.351 98.4932 55.5732C99.2127 54.7955 100.72 54.4066 103.014 54.4066C105.231 54.4066 106.738 54.7955 107.535 55.5732C108.332 56.351 109.431 56.7399 110.831 56.7399V61.4066C108.536 61.4066 107.01 61.0177 106.252 60.2399C105.493 59.4621 104.414 59.0732 103.014 59.0732C101.614 59.0732 100.554 59.4621 99.8349 60.2399C99.1155 61.0177 97.6085 61.4066 95.3141 61.4066C93.0974 61.4066 91.5905 61.0177 90.7932 60.2399C89.996 59.4621 88.8974 59.0732 87.4974 59.0732C86.0196 59.0732 84.9405 59.4621 84.2599 60.2399C83.5793 61.0177 82.0918 61.4066 79.7974 61.4066C77.503 61.4066 75.9766 61.0177 75.2182 60.2399C74.4599 59.4621 73.3807 59.0732 71.9807 59.0732C70.5807 59.0732 69.4821 59.4621 68.6849 60.2399C67.8877 61.0177 66.3807 61.4066 64.1641 61.4066ZM64.1641 52.0732V47.4066C65.6418 47.4066 66.7405 47.0177 67.4599 46.2399C68.1793 45.4621 69.6863 45.0732 71.9807 45.0732C74.1974 45.0732 75.6849 45.4621 76.4432 46.2399C77.2016 47.0177 78.2807 47.4066 79.6807 47.4066C81.1585 47.4066 82.2571 47.0177 82.9766 46.2399C83.696 45.4621 85.203 45.0732 87.4974 45.0732C89.7141 45.0732 91.2113 45.4621 91.9891 46.2399C92.7668 47.0177 93.8363 47.4066 95.1974 47.4066C96.6752 47.4066 97.7738 47.0177 98.4932 46.2399C99.2127 45.4621 100.72 45.0732 103.014 45.0732C105.231 45.0732 106.738 45.4621 107.535 46.2399C108.332 47.0177 109.431 47.4066 110.831 47.4066V52.0732C108.536 52.0732 107.01 51.6844 106.252 50.9066C105.493 50.1288 104.414 49.7399 103.014 49.7399C101.614 49.7399 100.554 50.1288 99.8349 50.9066C99.1155 51.6844 97.6085 52.0732 95.3141 52.0732C93.0974 52.0732 91.5905 51.6844 90.7932 50.9066C89.996 50.1288 88.8974 49.7399 87.4974 49.7399C86.0196 49.7399 84.9405 50.1288 84.2599 50.9066C83.5793 51.6844 82.0918 52.0732 79.7974 52.0732C77.503 52.0732 75.9766 51.6844 75.2182 50.9066C74.4599 50.1288 73.3807 49.7399 71.9807 49.7399C70.5807 49.7399 69.4821 50.1288 68.6849 50.9066C67.8877 51.6844 66.3807 52.0732 64.1641 52.0732Z" fill="#09304F"/>
</g>
</svg>
